<mxfile host="app.diagrams.net" modified="2020-11-17T17:44:09.173Z" agent="5.0 (Windows)" etag="C3kd5Wiivye8QAJsZeKo" version="13.8.7" type="github">
  <diagram id="YTJysijXRqlrfVRY3_Xh" name="Page-1">
    <mxGraphModel dx="1038" dy="575" grid="1" gridSize="10" guides="1" tooltips="1" connect="1" arrows="1" fold="1" page="1" pageScale="1" pageWidth="827" pageHeight="1169" math="0" shadow="0">
      <root>
        <mxCell id="0" />
        <mxCell id="1" parent="0" />
        <mxCell id="MaGZnMy3Yf7_0fu0ugRs-5" value="" style="rounded=0;whiteSpace=wrap;html=1;" parent="1" vertex="1">
          <mxGeometry x="220" y="130" width="480" height="310" as="geometry" />
        </mxCell>
        <mxCell id="MaGZnMy3Yf7_0fu0ugRs-15" value="" style="ellipse;whiteSpace=wrap;html=1;" parent="1" vertex="1">
          <mxGeometry x="280" y="320" width="120" height="80" as="geometry" />
        </mxCell>
        <mxCell id="MaGZnMy3Yf7_0fu0ugRs-14" value="" style="ellipse;whiteSpace=wrap;html=1;" parent="1" vertex="1">
          <mxGeometry x="280" y="150" width="120" height="80" as="geometry" />
        </mxCell>
        <mxCell id="MaGZnMy3Yf7_0fu0ugRs-3" style="edgeStyle=orthogonalEdgeStyle;rounded=0;orthogonalLoop=1;jettySize=auto;html=1;endArrow=none;endFill=0;" parent="1" source="MaGZnMy3Yf7_0fu0ugRs-1" target="MaGZnMy3Yf7_0fu0ugRs-14" edge="1">
          <mxGeometry relative="1" as="geometry">
            <Array as="points">
              <mxPoint x="240" y="270" />
              <mxPoint x="240" y="190" />
            </Array>
          </mxGeometry>
        </mxCell>
        <mxCell id="MaGZnMy3Yf7_0fu0ugRs-8" style="edgeStyle=orthogonalEdgeStyle;rounded=0;orthogonalLoop=1;jettySize=auto;html=1;endArrow=none;endFill=0;" parent="1" source="MaGZnMy3Yf7_0fu0ugRs-1" target="MaGZnMy3Yf7_0fu0ugRs-15" edge="1">
          <mxGeometry relative="1" as="geometry">
            <mxPoint x="470" y="230" as="targetPoint" />
            <Array as="points">
              <mxPoint x="240" y="280" />
              <mxPoint x="240" y="360" />
            </Array>
          </mxGeometry>
        </mxCell>
        <mxCell id="MaGZnMy3Yf7_0fu0ugRs-1" value="&lt;div&gt;UsuÃ¡rio&lt;/div&gt;" style="shape=umlActor;verticalLabelPosition=bottom;verticalAlign=top;html=1;outlineConnect=0;" parent="1" vertex="1">
          <mxGeometry x="150" y="240" width="30" height="60" as="geometry" />
        </mxCell>
        <mxCell id="MaGZnMy3Yf7_0fu0ugRs-9" value="&lt;div&gt;Consultar&lt;/div&gt;" style="text;html=1;strokeColor=none;fillColor=none;align=center;verticalAlign=middle;whiteSpace=wrap;rounded=0;" parent="1" vertex="1">
          <mxGeometry x="320" y="180" width="40" height="20" as="geometry" />
        </mxCell>
        <mxCell id="MaGZnMy3Yf7_0fu0ugRs-11" value="&lt;div&gt;Cadastar&lt;/div&gt;" style="text;html=1;strokeColor=none;fillColor=none;align=center;verticalAlign=middle;whiteSpace=wrap;rounded=0;" parent="1" vertex="1">
          <mxGeometry x="320" y="350" width="40" height="20" as="geometry" />
        </mxCell>
        <mxCell id="MaGZnMy3Yf7_0fu0ugRs-29" value="" style="edgeStyle=orthogonalEdgeStyle;rounded=0;orthogonalLoop=1;jettySize=auto;html=1;dashed=1;endArrow=block;endFill=1;entryX=0.5;entryY=0;entryDx=0;entryDy=0;exitX=0.5;exitY=1;exitDx=0;exitDy=0;" parent="1" source="MaGZnMy3Yf7_0fu0ugRs-16" target="MaGZnMy3Yf7_0fu0ugRs-21" edge="1">
          <mxGeometry relative="1" as="geometry" />
        </mxCell>
        <mxCell id="MaGZnMy3Yf7_0fu0ugRs-16" value="" style="ellipse;whiteSpace=wrap;html=1;" parent="1" vertex="1">
          <mxGeometry x="510" y="150" width="120" height="80" as="geometry" />
        </mxCell>
        <mxCell id="MaGZnMy3Yf7_0fu0ugRs-17" value="&lt;div&gt;Animais&lt;/div&gt;" style="text;html=1;strokeColor=none;fillColor=none;align=center;verticalAlign=middle;whiteSpace=wrap;rounded=0;" parent="1" vertex="1">
          <mxGeometry x="550" y="180" width="40" height="20" as="geometry" />
        </mxCell>
        <mxCell id="MaGZnMy3Yf7_0fu0ugRs-21" value="" style="ellipse;whiteSpace=wrap;html=1;" parent="1" vertex="1">
          <mxGeometry x="510" y="320" width="120" height="80" as="geometry" />
        </mxCell>
        <mxCell id="MaGZnMy3Yf7_0fu0ugRs-22" value="&lt;div&gt;Doador&lt;/div&gt;" style="text;html=1;strokeColor=none;fillColor=none;align=center;verticalAlign=middle;whiteSpace=wrap;rounded=0;" parent="1" vertex="1">
          <mxGeometry x="550" y="350" width="40" height="20" as="geometry" />
        </mxCell>
        <mxCell id="MaGZnMy3Yf7_0fu0ugRs-25" value="" style="endArrow=open;dashed=1;html=1;endFill=0;" parent="1" source="MaGZnMy3Yf7_0fu0ugRs-14" target="MaGZnMy3Yf7_0fu0ugRs-16" edge="1">
          <mxGeometry width="50" height="50" relative="1" as="geometry">
            <mxPoint x="530" y="230" as="sourcePoint" />
            <mxPoint x="580" y="180" as="targetPoint" />
          </mxGeometry>
        </mxCell>
        <mxCell id="MaGZnMy3Yf7_0fu0ugRs-27" value="&amp;lt;extend&amp;gt;" style="text;html=1;strokeColor=none;fillColor=none;align=center;verticalAlign=middle;whiteSpace=wrap;rounded=0;" parent="1" vertex="1">
          <mxGeometry x="440" y="170" width="40" height="20" as="geometry" />
        </mxCell>
        <mxCell id="MaGZnMy3Yf7_0fu0ugRs-28" value="&amp;lt;extend&amp;gt;" style="text;html=1;strokeColor=none;fillColor=none;align=center;verticalAlign=middle;whiteSpace=wrap;rounded=0;" parent="1" vertex="1">
          <mxGeometry x="370" y="250" width="40" height="20" as="geometry" />
        </mxCell>
        <mxCell id="MaGZnMy3Yf7_0fu0ugRs-31" value="&amp;lt;include&amp;gt;" style="text;html=1;strokeColor=none;fillColor=none;align=center;verticalAlign=middle;whiteSpace=wrap;rounded=0;" parent="1" vertex="1">
          <mxGeometry x="520" y="270" width="40" height="20" as="geometry" />
        </mxCell>
        <mxCell id="MaGZnMy3Yf7_0fu0ugRs-32" value="" style="endArrow=none;dashed=1;html=1;exitX=1;exitY=0;exitDx=0;exitDy=0;entryX=0;entryY=1;entryDx=0;entryDy=0;" parent="1" source="MaGZnMy3Yf7_0fu0ugRs-15" target="MaGZnMy3Yf7_0fu0ugRs-16" edge="1">
          <mxGeometry width="50" height="50" relative="1" as="geometry">
            <mxPoint x="530" y="350" as="sourcePoint" />
            <mxPoint x="580" y="300" as="targetPoint" />
          </mxGeometry>
        </mxCell>
      </root>
    </mxGraphModel>
  </diagram>
</mxfile>
